<svg width="512" height="512" viewBox="0 0 512 512" xmlns="http://www.w3.org/2000/svg" role="img" aria-label="Faynatown Booking">
  <rect width="512" height="512" fill="#1A1D20"/>

  <rect x="188" y="168" width="20" height="40" rx="10" fill="#3F4449"/>
  <rect x="304" y="168" width="20" height="40" rx="10" fill="#3F4449"/>

  <rect x="152" y="188" width="208" height="184" rx="24" fill="#23272B" stroke="#3F4449" stroke-width="4"/>

  <rect x="152" y="188" width="208" height="36" rx="12" fill="#3F4449"/>

  <g fill="#4A5056">
    <rect x="168" y="236" width="54" height="34" rx="6"/>
    <rect x="229" y="236" width="54" height="34" rx="6"/>
    <rect x="290" y="236" width="54" height="34" rx="6"/>

    <rect x="168" y="278" width="54" height="34" rx="6"/>
    <rect x="229" y="278" width="54" height="34" rx="6" fill="#1FA56A"/>
    <rect x="290" y="278" width="54" height="34" rx="6"/>

    <rect x="168" y="320" width="54" height="34" rx="6"/>
    <rect x="229" y="320" width="54" height="34" rx="6"/>
    <rect x="290" y="320" width="54" height="34" rx="6"/>
  </g>
</svg>
