<svg width="512" height="512" viewBox="0 0 512 512" xmlns="http://www.w3.org/2000/svg" role="img" aria-label="Faynatown Booking">
  <rect width="512" height="512" rx="112" fill="#1A1D20"/>

  <rect x="148" y="112" width="24" height="52" rx="12" fill="#3F4449"/>
  <rect x="340" y="112" width="24" height="52" rx="12" fill="#3F4449"/>

  <rect x="96" y="140" width="320" height="280" rx="32" fill="#23272B" stroke="#3F4449" stroke-width="6"/>

  <rect x="96" y="140" width="320" height="54" rx="14" fill="#3F4449"/>
  <rect x="96" y="180" width="320" height="14" fill="#3F4449"/>

  <g fill="#4A5056">
    <rect x="120" y="216" width="82" height="48" rx="8"/>
    <rect x="215" y="216" width="82" height="48" rx="8"/>
    <rect x="310" y="216" width="82" height="48" rx="8"/>

    <rect x="120" y="280" width="82" height="48" rx="8"/>
    <rect x="215" y="280" width="82" height="48" rx="8" fill="#1FA56A"/>
    <rect x="310" y="280" width="82" height="48" rx="8"/>

    <rect x="120" y="344" width="82" height="48" rx="8"/>
    <rect x="215" y="344" width="82" height="48" rx="8"/>
    <rect x="310" y="344" width="82" height="48" rx="8"/>
  </g>
</svg>
