<svg width="1200" height="630" viewBox="0 0 1200 630" xmlns="http://www.w3.org/2000/svg" role="img" aria-label="Faynatown Booking">
  <defs>
    <linearGradient id="bg" x1="0" y1="0" x2="1200" y2="630" gradientUnits="userSpaceOnUse">
      <stop offset="0" stop-color="#1A1D20"/>
      <stop offset="1" stop-color="#0E1012"/>
    </linearGradient>
    <radialGradient id="glow" cx="1020" cy="330" r="360" gradientUnits="userSpaceOnUse">
      <stop offset="0" stop-color="#1FA56A" stop-opacity="0.22"/>
      <stop offset="1" stop-color="#1FA56A" stop-opacity="0"/>
    </radialGradient>
  </defs>

  <rect width="1200" height="630" fill="url(#bg)"/>
  <rect width="1200" height="630" fill="url(#glow)"/>

  <g transform="translate(80 88)">
    <rect width="52" height="52" rx="13" fill="#1A1D20" stroke="#1FA56A" stroke-width="3"/>
    <rect x="13" y="16" width="26" height="6" rx="3" fill="#1FA56A"/>
    <rect x="13" y="28" width="18" height="6" rx="3" fill="#1FA56A"/>
  </g>

  <text x="148" y="126" font-family="Inter Tight, Helvetica Neue, Arial, sans-serif" font-size="22" font-weight="500" fill="#8E9297" letter-spacing="2.5">FAYNATOWN BOOKING</text>

  <text x="80" y="280" font-family="Inter Tight, Helvetica Neue, Arial, sans-serif" font-size="58" font-weight="700" fill="#F0F0F0">Тиждень бронювань</text>
  <text x="80" y="350" font-family="Inter Tight, Helvetica Neue, Arial, sans-serif" font-size="58" font-weight="700" fill="#F0F0F0">на одному екрані</text>

  <text x="80" y="418" font-family="Inter Tight, Helvetica Neue, Arial, sans-serif" font-size="24" font-weight="400" fill="#B5B9BE">Падл, BBQ, футбол, баскетбол, волейбол —</text>
  <text x="80" y="452" font-family="Inter Tight, Helvetica Neue, Arial, sans-serif" font-size="24" font-weight="400" fill="#B5B9BE">вся доступність мешканців ЖК Faynatown.</text>

  <g transform="translate(830 140)">
    <rect x="52" y="0" width="14" height="28" rx="7" fill="#3F4449"/>
    <rect x="204" y="0" width="14" height="28" rx="7" fill="#3F4449"/>

    <rect x="0" y="16" width="270" height="308" rx="22" fill="#23272B" stroke="#3F4449" stroke-width="4"/>

    <rect x="0" y="16" width="270" height="48" rx="12" fill="#3F4449"/>
    <text x="26" y="48" font-family="Inter Tight, Arial, sans-serif" font-size="16" font-weight="600" fill="#D7DADE">Пн</text>
    <text x="92" y="48" font-family="Inter Tight, Arial, sans-serif" font-size="16" font-weight="600" fill="#D7DADE">Вт</text>
    <text x="158" y="48" font-family="Inter Tight, Arial, sans-serif" font-size="16" font-weight="600" fill="#D7DADE">Ср</text>
    <text x="224" y="48" font-family="Inter Tight, Arial, sans-serif" font-size="16" font-weight="600" fill="#D7DADE">Чт</text>

    <g fill="#4A5056">
      <rect x="14" y="82" width="56" height="38" rx="6"/>
      <rect x="78" y="82" width="56" height="38" rx="6"/>
      <rect x="142" y="82" width="56" height="38" rx="6"/>
      <rect x="206" y="82" width="56" height="38" rx="6"/>

      <rect x="14" y="132" width="56" height="38" rx="6"/>
      <rect x="78" y="132" width="56" height="38" rx="6" fill="#1FA56A"/>
      <rect x="142" y="132" width="56" height="38" rx="6"/>
      <rect x="206" y="132" width="56" height="38" rx="6"/>

      <rect x="14" y="182" width="56" height="38" rx="6"/>
      <rect x="78" y="182" width="56" height="38" rx="6"/>
      <rect x="142" y="182" width="56" height="38" rx="6"/>
      <rect x="206" y="182" width="56" height="38" rx="6"/>

      <rect x="14" y="232" width="56" height="38" rx="6"/>
      <rect x="78" y="232" width="56" height="38" rx="6"/>
      <rect x="142" y="232" width="56" height="38" rx="6" fill="#3A7DF0"/>
      <rect x="206" y="232" width="56" height="38" rx="6"/>

      <rect x="14" y="282" width="56" height="26" rx="6"/>
      <rect x="78" y="282" width="56" height="26" rx="6"/>
      <rect x="142" y="282" width="56" height="26" rx="6"/>
      <rect x="206" y="282" width="56" height="26" rx="6"/>
    </g>
  </g>

  <text x="80" y="560" font-family="Inter Tight, Arial, sans-serif" font-size="18" font-weight="500" fill="#6E7378">Desktop · Mobile · i18n · Light / Dark</text>
</svg>
